<svg width="72" height="72" viewBox="0 0 72 72" xmlns="http://www.w3.org/2000/svg" role="img" aria-label="Captcha mark">
  <defs>
    <linearGradient id="g1" x1="0" y1="0" x2="1" y2="1">
      <stop offset="0%" stop-color="#1a73e8"/>
      <stop offset="100%" stop-color="#1557b0"/>
    </linearGradient>
    <linearGradient id="g2" x1="1" y1="0" x2="0" y2="1">
      <stop offset="0%" stop-color="#6aa2ff"/>
      <stop offset="100%" stop-color="#2f6ee8"/>
    </linearGradient>
  </defs>
  <rect x="0" y="0" width="72" height="72" rx="10" fill="#ffffff"/>
  <path d="M36 10a20 20 0 0 1 18.2 11.7l-6.3 2.7A13.2 13.2 0 0 0 36 16.8V10z" fill="url(#g1)"/>
  <path d="M58 36a22 22 0 0 1-11.7 19.4l-3.5-5.9A15.1 15.1 0 0 0 51 36h7z" fill="url(#g2)"/>
  <path d="M36 62A26 26 0 0 1 11.4 45l6.6-2.1A19 19 0 0 0 36 55v7z" fill="#b9c8ea"/>
  <circle cx="36" cy="36" r="10" fill="#cbd7f2"/>
</svg>
